<svg width="48" height="31" viewBox="0 0 48 31" fill="none" xmlns="http://www.w3.org/2000/svg">
<path d="M0 3C0 1.34315 1.34315 0 3 0H45C46.6569 0 48 1.34315 48 3V28C48 29.6569 46.6569 31 45 31H3C1.34315 31 0 29.6569 0 28V3Z" fill="white"/>
<path d="M9.61972 21C9.34641 20.9985 9.07479 20.958 8.81347 20.8796C8.52689 20.7936 8.2499 20.6795 7.98668 20.5392C7.62673 20.358 7.28287 20.1478 6.95867 19.9107C6.66688 19.687 6.3911 19.444 6.13326 19.1834C5.784 18.8416 5.45822 18.492 5.19031 18.1709C4.89401 17.8291 4.63817 17.4555 4.42767 17.0574L4.40987 17.0211V17.0199L4.40577 17.0115V17.0096V17.0077L4.38504 16.9642L4.38367 16.9614L4.3823 16.9585L4.36275 16.9166L4.3602 16.9112V16.9097L4.34573 16.8783L4.34124 16.8685L4.33791 16.8611L4.33517 16.8551V16.854L4.32012 16.8205L4.31855 16.8167L4.31444 16.813L4.29665 16.7725L4.29372 16.7658L4.27631 16.7246L4.27514 16.7219L4.27397 16.7193L4.25754 16.6791L4.25558 16.6743L4.23974 16.6347V16.6333L4.23759 16.628L4.22254 16.5897L4.22117 16.5859L4.21941 16.5815C4.21471 16.5692 4.21022 16.557 4.20552 16.5443V16.5419L4.20279 16.5344C4.19751 16.5202 4.1934 16.5086 4.18968 16.4982V16.4959L4.18675 16.4873L4.1715 16.4494L4.16778 16.4383L4.15585 16.4031L4.1539 16.3976L4.15233 16.392C4.14803 16.379 4.14451 16.3677 4.14119 16.3574L4.13786 16.3465L4.12828 16.3155L4.12652 16.3095V16.3084L4.12457 16.3017L4.11479 16.2711L4.11322 16.2659L4.11166 16.258C4.10833 16.246 4.1054 16.2355 4.10266 16.2255L4.10071 16.2198L4.09895 16.2135C4.09641 16.2037 4.09347 16.1932 4.09054 16.1813L4.08761 16.1698V16.1671C4.08546 16.1585 4.08252 16.148 4.07978 16.1358L4.07568 16.1206C4.07333 16.1113 4.07098 16.1015 4.06844 16.0896L4.06688 16.0824L4.06512 16.0747C4.06277 16.0644 4.06062 16.054 4.05847 16.0439L4.05612 16.0297C4.05456 16.0225 4.05319 16.0152 4.05163 16.0079V16.0041V16.0008V15.9997L4.04869 15.9844V15.9825L4.04459 15.9601C4.04322 15.953 4.04204 15.9459 4.04087 15.9388L4.03696 15.9155C4.03579 15.9088 4.03481 15.9021 4.03363 15.8963C4.03246 15.8906 4.03109 15.8797 4.02972 15.8713L4.02855 15.863L4.02738 15.8548C4.02601 15.8451 4.02464 15.8357 4.02347 15.8259L4.01897 15.811V15.8083C4.01701 15.7972 4.01701 15.788 4.01506 15.7796C4.01506 15.7744 4.01388 15.7693 4.0133 15.7641V15.7622C4.01232 15.753 4.01134 15.743 4.01036 15.7339C4.01036 15.7285 4.00939 15.723 4.0088 15.7176V15.7164C4.00802 15.7085 4.0073 15.7006 4.00665 15.6927C4.00665 15.6856 4.00548 15.6787 4.00508 15.6717C4.00469 15.6646 4.00411 15.6577 4.00352 15.6508C4.00352 15.643 4.00254 15.6351 4.00215 15.6271C4.00176 15.619 4.00215 15.6139 4.00098 15.6079C3.9998 15.602 4.00098 15.5921 4 15.5842V15.5831C4 15.5764 4 15.5697 4 15.563C4 15.5563 4 15.5524 4 15.5473V15.5396C4 15.5323 4 15.5249 4 15.5176C4 15.5103 4 15.5057 4 15.4998V15.4552C4 15.446 4 15.4368 4 15.4277C4 15.4212 4 15.4146 4 15.4085C4 15.4024 4 15.3923 4 15.384C4 15.3794 4 15.375 4 15.3704V15.3637C4 15.3534 4 15.3446 4.00137 15.3358C4.00137 15.3306 4.00137 15.3253 4.00137 15.3201C4.00137 15.3117 4.00235 15.3027 4.00313 15.292C4.00313 15.287 4.00313 15.2818 4.0043 15.2769C4.0043 15.2673 4.00587 15.2577 4.00665 15.2481V15.2388V15.2321C4.00756 15.2225 4.00854 15.2129 4.00958 15.2034L4.01115 15.1882V15.1852C4.01115 15.1766 4.0131 15.1672 4.01467 15.1561C4.01467 15.1526 4.01467 15.1492 4.01604 15.1458V15.1408V15.1389C4.01721 15.1293 4.01858 15.1197 4.01995 15.1102L4.0219 15.0966C4.02347 15.0862 4.02503 15.0759 4.02659 15.0658L4.02855 15.0543V15.0526C4.03011 15.043 4.03187 15.0325 4.03403 15.0204L4.03637 15.007C4.03833 14.9959 4.04048 14.9846 4.04263 14.9733L4.04439 14.9645V14.9597C4.04654 14.9486 4.04889 14.9372 4.05123 14.9261L4.05319 14.9165V14.9148C4.05554 14.9037 4.05808 14.8922 4.06062 14.8809V14.8773L4.06218 14.8702C4.06453 14.8597 4.06727 14.8486 4.0704 14.8355L4.07294 14.8254C4.07568 14.8145 4.07861 14.8026 4.08233 14.7881L4.0837 14.7829L4.08487 14.7787C4.08819 14.7659 4.09171 14.7529 4.09562 14.7387L4.0966 14.7351L4.09778 14.731C4.10169 14.7171 4.10521 14.7046 4.10853 14.6928L4.11107 14.684C4.1144 14.6727 4.1185 14.6593 4.12261 14.6457V14.6442L4.12476 14.6373C4.12906 14.6235 4.13337 14.6101 4.13728 14.5978L4.13943 14.5911C4.14373 14.5779 4.14842 14.5638 4.1539 14.5477L4.15507 14.5441V14.5427C4.15996 14.5282 4.16524 14.5134 4.16993 14.4999L4.17228 14.4935C4.17717 14.4796 4.18245 14.4654 4.18734 14.4522L4.18851 14.4491L4.18968 14.4461C4.19575 14.43 4.20083 14.4168 4.20552 14.4042L4.20748 14.399C4.21315 14.3847 4.21902 14.3697 4.22508 14.3546L4.22625 14.3517C4.23212 14.337 4.23857 14.3215 4.24581 14.3043L4.24718 14.301C4.25382 14.2851 4.26008 14.2702 4.26673 14.2557L4.26888 14.2507C4.27455 14.2375 4.28081 14.2233 4.28844 14.2063L4.29078 14.2011C4.29665 14.1881 4.3031 14.1736 4.31151 14.1556L4.31327 14.1517C4.32207 14.1326 4.3295 14.1169 4.33635 14.1026C4.74387 13.2452 5.35321 12.6481 5.94357 12.0709L5.95531 12.0594C6.29869 11.7234 6.6192 11.4365 6.93501 11.1825C7.29621 10.8889 7.68107 10.6244 8.08583 10.3916C8.31083 10.2605 8.55227 10.1586 8.80408 10.0884C9.01988 10.03 9.24271 10.0003 9.46661 10C9.76768 10.0021 10.0664 10.0519 10.3513 10.1474C10.6238 10.2385 10.8876 10.3531 11.1395 10.4897C11.5419 10.7012 11.9279 10.9412 12.2945 11.2078C12.6395 11.4593 12.9655 11.7349 13.2699 12.0324C13.5876 12.347 13.8785 12.6866 14.1395 13.0477C14.3834 13.3701 14.5847 13.7214 14.7386 14.0932C14.839 14.3532 14.9242 14.6186 14.994 14.888C15.0549 15.1222 15.0891 15.3622 15.0961 15.6037C15.1009 15.8404 15.0716 16.0766 15.0091 16.3053C14.9354 16.567 14.8307 16.8193 14.6972 17.0572C14.507 17.4063 14.2844 17.7376 14.0323 18.0469C13.7812 18.3504 13.5125 18.6396 13.2274 18.9128C12.9194 19.2142 12.595 19.499 12.2555 19.766C11.9002 20.046 11.5276 20.3042 11.1397 20.5392C10.688 20.8307 10.1608 20.9906 9.61972 21ZM10.4518 19.7809C10.2262 19.9109 9.98244 20.0081 9.72825 20.0695C9.98244 20.0081 10.2262 19.9109 10.4518 19.7809ZM7.13213 19.3419C7.15579 19.3576 7.18023 19.3735 7.20468 19.389C7.17769 19.3718 7.15403 19.3563 7.13213 19.3419ZM6.30651 18.6677L6.34817 18.7073L6.30651 18.6677ZM6.70485 14.8143L6.69194 14.8417V14.8438L6.68041 14.869L6.67923 14.8719L6.66828 14.8966V14.8979V14.8993L6.65753 14.9245V14.9262L6.64677 14.9525V14.9536L6.63699 14.9783V14.98V14.9816L6.62819 15.0047L6.62702 15.0076L6.61861 15.0306V15.0325V15.034C6.61588 15.0413 6.61333 15.0491 6.6104 15.0577V15.0596C6.60708 15.0694 6.60453 15.0767 6.60238 15.0838L6.60121 15.0874L6.59436 15.1094L6.593 15.114C6.59078 15.121 6.58863 15.128 6.58654 15.135V15.1375V15.14L6.58048 15.1611L6.57051 15.1672L6.56933 15.1718L6.56464 15.189L6.56327 15.1942C6.56151 15.2011 6.55975 15.208 6.55799 15.2148L6.55662 15.2204L6.55213 15.2395L6.55095 15.2449L6.54939 15.2522L6.54685 15.2638V15.2669V15.2702L6.54352 15.286V15.2891L6.53961 15.2991L6.53726 15.3113L6.53609 15.3178V15.3207V15.3247C6.53511 15.3306 6.53414 15.3364 6.53316 15.3423L6.53198 15.3496L6.52944 15.3668L6.52827 15.3741C6.52827 15.3798 6.5267 15.3854 6.52592 15.3911V15.3955V15.3999C6.52592 15.4053 6.52455 15.4106 6.52397 15.416V15.4213V15.4261V15.4313C6.52397 15.4349 6.52397 15.4386 6.52299 15.442V15.451V15.4558C6.52299 15.4594 6.52299 15.4633 6.52299 15.4669C6.52299 15.4705 6.52299 15.4724 6.52299 15.4753C6.52299 15.4782 6.52299 15.4853 6.52201 15.4902C6.52201 15.4922 6.52201 15.4941 6.52201 15.4962V15.4996C6.52201 15.5046 6.52201 15.5096 6.52201 15.5147C6.52201 15.5199 6.52201 15.522 6.52201 15.5256C6.52201 15.5299 6.52201 15.5343 6.52201 15.5385V15.5505C6.52201 15.5553 6.52201 15.5601 6.52201 15.5649V15.5995C6.52201 15.6035 6.52201 15.6077 6.52201 15.6118C6.52201 15.6158 6.52201 15.6204 6.52201 15.6248V15.6359C6.52201 15.6405 6.52201 15.6451 6.52201 15.6497V15.6552V15.6608C6.52201 15.6638 6.52201 15.6667 6.52201 15.6698V15.6743V15.6803V15.686C6.52201 15.6898 6.52201 15.6939 6.52201 15.6977V15.7042V15.7113V15.7201C6.52201 15.7253 6.52299 15.7304 6.52358 15.7356C6.52358 15.7377 6.52358 15.7396 6.52358 15.7417V15.7452C6.52358 15.7505 6.52475 15.7557 6.52553 15.7608V15.7649V15.7702L6.5267 15.7783L6.52768 15.7855L6.52905 15.7947V15.7993L6.53042 15.8081V15.8127V15.8183L6.53159 15.8248V15.8303V15.8359L6.53277 15.8422L6.53531 15.8552V15.8588L6.53668 15.8661V15.8697L6.53863 15.8797L6.5402 15.887C6.54137 15.8927 6.54261 15.8984 6.54391 15.904L6.54567 15.9122L6.54841 15.9239L6.54958 15.9293V15.9333V15.9369L6.55369 15.9538L6.55565 15.9616C6.55741 15.9685 6.55897 15.9742 6.56034 15.9794L6.56229 15.9867L6.56718 16.0041L6.56816 16.0075L6.56914 16.011C6.5707 16.0167 6.57246 16.0223 6.57403 16.028L6.57618 16.0355L6.58146 16.0529L6.58244 16.0561V16.059L6.5885 16.0782V16.081V16.0841L6.59163 16.0933L6.59495 16.103L6.59632 16.1069V16.1092L6.6014 16.1239L6.60297 16.1283L6.60512 16.1342V16.1369L6.61118 16.1537L6.61314 16.1593L6.62096 16.18L6.62213 16.1828V16.1847L6.63054 16.2064L6.63211 16.2102L6.64091 16.2322L6.64208 16.2349L6.6499 16.254L6.65127 16.2573V16.2586V16.2603C6.6544 16.2678 6.65772 16.2755 6.66105 16.2831L6.66222 16.286L6.672 16.3086L6.67337 16.3118L6.68099 16.3289L6.68314 16.3336L6.6851 16.3379L6.69546 16.3606V16.362L6.69664 16.3645L6.70759 16.3878V16.3897V16.3911L6.71072 16.3976L6.71913 16.4154V16.4165L6.72323 16.4247L6.73145 16.4418C6.98678 16.8784 7.30567 17.2764 7.6781 17.6231C7.97361 17.9312 8.3221 18.186 8.70767 18.376C8.98345 18.5342 9.29534 18.6222 9.61483 18.6319C9.91539 18.6267 10.2082 18.5379 10.4592 18.376C10.8798 18.1193 11.2689 17.8162 11.6188 17.4727C11.9441 17.1727 12.2196 16.825 12.4354 16.442C12.7562 15.8548 12.6947 15.4277 12.4585 14.7961C12.267 14.375 11.9973 13.9924 11.663 13.6678C11.3134 13.3271 10.9148 13.0384 10.4798 12.8108C10.1979 12.6464 9.87885 12.5529 9.55108 12.5388C9.28179 12.5416 9.01828 12.6156 8.78844 12.753C8.35409 13.0096 7.95618 13.3211 7.60497 13.6794L7.59871 13.6855C7.23322 14.0055 6.93056 14.3882 6.70563 14.8147L6.70485 14.8143ZM6.18038 18.5462L6.25293 18.6166L6.18038 18.5462ZM12.5487 18.127C12.4918 18.1845 12.4313 18.2445 12.367 18.3077C12.2917 18.3814 12.2145 18.4547 12.1361 18.5268C12.2143 18.4547 12.2925 18.3814 12.367 18.3077C12.4317 18.2442 12.492 18.1841 12.5487 18.1267V18.127ZM13.6915 16.6098C13.6778 16.636 13.6637 16.6626 13.6492 16.6892C13.5547 16.8627 13.4509 17.0312 13.3383 17.1941C13.4509 17.0312 13.5547 16.8627 13.6492 16.6892C13.6639 16.6622 13.6772 16.6356 13.6917 16.6092L13.6915 16.6098ZM13.8209 14.4911C13.8917 14.7042 13.9436 14.9229 13.976 15.1448C13.944 14.9227 13.8921 14.7037 13.8209 14.4905V14.4911ZM12.1048 12.0286C12.2076 12.1189 12.3074 12.2115 12.4042 12.3063C12.6814 12.5807 12.9352 12.8769 13.1629 13.192C13.2618 13.329 13.3512 13.4632 13.4285 13.591C13.1412 13.1239 12.7973 12.6925 12.4042 12.3063C12.3077 12.2112 12.2079 12.1187 12.1048 12.0286ZM10.3219 10.8474C10.3933 10.8811 10.4666 10.9178 10.5458 10.9596C10.7654 11.0744 10.9815 11.2015 11.1878 11.3349C10.9819 11.2009 10.7658 11.0754 10.546 10.9596C10.4666 10.9186 10.3935 10.8803 10.3219 10.8474ZM6.83626 16.1206C6.79938 16.0366 6.76829 15.9503 6.74318 15.8623C6.7117 15.753 6.69378 15.6404 6.68979 15.527C6.70066 15.7319 6.75039 15.9331 6.83646 16.1203L6.83626 16.1206Z" fill="#53B7D1"/>
<path d="M21.5247 17.9889C21.7777 17.9889 22.0106 17.984 22.2236 17.9742C22.4366 17.9643 22.6564 17.9432 22.8828 17.9106C22.9025 17.9061 22.9232 17.9064 22.9428 17.9115C22.9624 17.9166 22.9803 17.9263 22.9951 17.9399C23.0099 17.9534 23.0212 17.9703 23.0278 17.9891C23.0343 18.0078 23.036 18.0279 23.0327 18.0475V18.7804C23.0327 18.865 22.9797 18.9238 22.8729 18.9563C22.6122 19.0352 22.3448 19.0908 22.0739 19.1224C21.7859 19.1603 21.4957 19.1798 21.2052 19.181C20.7383 19.1935 20.2734 19.1171 19.8363 18.9561C19.4814 18.8191 19.1686 18.595 18.9277 18.3054C18.6831 17.9986 18.5092 17.6434 18.4182 17.2645C18.3063 16.8071 18.2528 16.3378 18.2587 15.8675V15.4179C18.2529 14.9479 18.3049 14.4788 18.4136 14.0209C18.5011 13.6426 18.6714 13.2874 18.913 12.98C19.1513 12.6899 19.4629 12.4656 19.8168 12.3293C20.2539 12.1683 20.7188 12.0919 21.1857 12.1044C21.7285 12.1083 22.2674 12.194 22.7835 12.3586C22.8293 12.3698 22.871 12.3935 22.9034 12.4271C22.925 12.4588 22.9356 12.4966 22.9334 12.5346V13.2383C22.9367 13.2579 22.9348 13.278 22.9283 13.2967C22.9217 13.3155 22.9104 13.3324 22.8956 13.3459C22.8808 13.3595 22.8629 13.3692 22.8433 13.3743C22.8237 13.3794 22.8031 13.3797 22.7833 13.3752C22.5968 13.3496 22.3937 13.3301 22.1741 13.3164C21.9546 13.3028 21.7316 13.2964 21.505 13.2973C21.2312 13.2898 20.9586 13.3329 20.7012 13.4244C20.4903 13.505 20.3079 13.6443 20.1768 13.8251C20.0332 14.0325 19.9362 14.2673 19.8923 14.5141C19.8312 14.838 19.8028 15.167 19.8073 15.4964V15.7994C19.8027 16.1289 19.8328 16.458 19.897 16.7815C19.9437 17.0277 20.0442 17.2611 20.1917 17.4657C20.3279 17.6445 20.5132 17.7817 20.726 17.8614C20.9819 17.9521 21.2528 17.9953 21.5248 17.9885L21.5247 17.9889ZM24.1913 12.3789C24.1913 12.2746 24.2409 12.2225 24.341 12.2225H25.5793C25.601 12.2195 25.6232 12.2214 25.644 12.2282C25.6648 12.235 25.6837 12.2464 25.6992 12.2616C25.7147 12.2768 25.7263 12.2952 25.7332 12.3156C25.7401 12.336 25.7422 12.3576 25.7391 12.3789V17.4312C25.728 17.5783 25.7628 17.7251 25.839 17.8523C25.8915 17.9049 25.956 17.9447 26.0271 17.9684C26.0982 17.9922 26.174 17.9993 26.2484 17.9891H28.6147C28.6364 17.986 28.6584 17.988 28.6792 17.9948C28.7 18.0016 28.7189 18.013 28.7344 18.0282C28.7499 18.0433 28.7617 18.0619 28.7686 18.0822C28.7755 18.1026 28.7774 18.1242 28.7743 18.1454V18.8687C28.7743 18.9924 28.7179 19.0576 28.6048 19.0641C28.2387 19.0966 27.8191 19.1243 27.3463 19.1471C26.8734 19.17 26.3841 19.1814 25.8781 19.1814C25.6112 19.1861 25.3445 19.1598 25.0839 19.1031C24.8913 19.0625 24.7115 18.9772 24.5597 18.8543C24.4235 18.7356 24.3248 18.5814 24.275 18.4097C24.2136 18.1901 24.1851 17.963 24.1904 17.7353L24.1913 12.3789ZM31.2516 18.8978C31.2549 18.9203 31.2528 18.9433 31.2454 18.965C31.2381 18.9866 31.2256 19.0062 31.2092 19.0224C31.1927 19.0385 31.1726 19.0506 31.1505 19.0578C31.1284 19.065 31.105 19.0671 31.082 19.0639H29.8733C29.8503 19.0671 29.8269 19.065 29.8048 19.0578C29.7827 19.0506 29.7626 19.0385 29.7462 19.0224C29.7297 19.0062 29.7172 18.9866 29.7099 18.965C29.7025 18.9433 29.7003 18.9203 29.7036 18.8978V12.3984C29.7036 12.2811 29.7602 12.2225 29.8733 12.2225H31.082C31.1953 12.2225 31.2517 12.2811 31.2516 12.3984V18.8978ZM35.9253 17.9887C36.1785 17.9887 36.4116 17.9838 36.6246 17.974C36.8376 17.9641 37.0573 17.943 37.2836 17.9104C37.3034 17.9059 37.3238 17.9062 37.3434 17.9113C37.363 17.9164 37.3811 17.9262 37.3959 17.9397C37.4107 17.9532 37.422 17.9701 37.4286 17.9889C37.4351 18.0076 37.4368 18.0277 37.4335 18.0473V18.7802C37.4335 18.865 37.3803 18.9236 37.2737 18.9561C37.0131 19.035 36.7456 19.0906 36.4747 19.1222C36.1867 19.1601 35.8966 19.1796 35.606 19.1808C35.1391 19.1933 34.6742 19.1169 34.2371 18.9559C33.8822 18.8188 33.5692 18.5948 33.3283 18.3053C33.084 17.9983 32.9107 17.6432 32.82 17.2643C32.708 16.8069 32.6543 16.3377 32.6601 15.8673V15.4178C32.6543 14.9477 32.7063 14.4786 32.815 14.0207C32.9025 13.6424 33.0731 13.2873 33.3146 12.9798C33.5529 12.6897 33.8645 12.4654 34.2184 12.3291C34.6555 12.1681 35.1204 12.0917 35.5873 12.1042C36.1301 12.1081 36.6691 12.1938 37.1853 12.3584C37.231 12.3696 37.2724 12.3934 37.3048 12.4269C37.3264 12.4586 37.337 12.4964 37.3348 12.5345V13.2382C37.3381 13.2577 37.3364 13.2778 37.3298 13.2966C37.3233 13.3153 37.3122 13.3322 37.2974 13.3458C37.2826 13.3593 37.2644 13.369 37.2449 13.3741C37.2253 13.3792 37.2048 13.3795 37.1851 13.375C36.9985 13.3495 36.7954 13.3299 36.5757 13.3162C36.356 13.3026 36.1331 13.2962 35.9068 13.2971C35.6329 13.2896 35.3601 13.3327 35.1026 13.4242C34.8916 13.5049 34.7095 13.6442 34.5784 13.8249C34.4349 14.0324 34.3379 14.2671 34.2939 14.5139C34.233 14.8378 34.2044 15.1668 34.2089 15.4962V15.7992C34.2043 16.1287 34.2343 16.4578 34.2984 16.7813C34.3451 17.0275 34.4458 17.261 34.5935 17.4655C34.7295 17.6444 34.9147 17.7817 35.1276 17.8613C35.3834 17.952 35.6543 17.9951 35.9262 17.9883L35.9253 17.9887ZM43.6052 12.2223C43.6274 12.2202 43.6496 12.2247 43.6692 12.2351C43.6888 12.2456 43.7048 12.2615 43.715 12.2809C43.7246 12.3017 43.7278 12.3247 43.7244 12.3472C43.7209 12.3698 43.711 12.3909 43.6955 12.408L41.5582 15.5159L43.9751 18.8878C43.988 18.9033 43.9962 18.9221 43.9988 18.9419C44.0014 18.9618 43.9985 18.9819 43.99 19.0002C43.9806 19.0216 43.9643 19.0394 43.9436 19.0509C43.9229 19.0624 43.8988 19.0669 43.8752 19.0637H42.4672C42.4091 19.0665 42.3511 19.0565 42.2975 19.0344C42.2514 19.0092 42.2135 18.972 42.1879 18.9268L40.1403 15.8774V18.8974C40.1436 18.9199 40.1416 18.9429 40.1342 18.9645C40.1268 18.9861 40.1144 19.0058 40.0979 19.0219C40.0814 19.038 40.0614 19.0501 40.0393 19.0574C40.0172 19.0646 39.9938 19.0667 39.9707 19.0635H38.7619C38.7389 19.0667 38.7154 19.0646 38.6933 19.0574C38.6713 19.0502 38.6512 19.038 38.6347 19.0219C38.6183 19.0058 38.606 18.9861 38.5986 18.9645C38.5913 18.9429 38.589 18.9199 38.5923 18.8974V12.398C38.5923 12.2807 38.6489 12.2221 38.7619 12.2221H39.9707C40.0838 12.2221 40.1402 12.2807 40.1403 12.398V15.1538L42.0477 12.3391C42.0732 12.3026 42.1077 12.2728 42.1477 12.2523C42.1878 12.2319 42.2324 12.2214 42.2776 12.2217L43.6052 12.2223Z" fill="#231F20"/>
</svg>
