<svg width="16" height="15" viewBox="0 0 16 15" fill="none" xmlns="http://www.w3.org/2000/svg">
<path d="M3.58661 13.3117L3.0938 13.2272L3.58661 13.3117ZM4.31208 13.8388L4.07941 13.3963L4.31208 13.8388ZM4.10271 9.02162L4.45172 8.66358L4.10271 9.02162ZM4.24651 9.46419L4.73932 9.54871L4.24651 9.46419ZM1.58441 5.44392L1.65631 5.93872L1.58441 5.44392ZM1.3073 6.29677L0.958297 6.65481L1.3073 6.29677ZM5.82404 4.60905L5.37567 4.38777L5.82404 4.60905ZM5.44757 4.88257L5.37567 4.38777L5.44757 4.88257ZM8.44844 1.10843L8.89681 0.887146L8.44844 1.10843ZM7.5517 1.10843L8.00007 1.32971L7.5517 1.10843ZM10.5526 4.88257L10.6245 4.38777L10.5526 4.88257ZM10.1761 4.60905L9.72773 4.83033L10.1761 4.60905ZM14.6928 6.29677L15.0418 6.65481L14.6928 6.29677ZM14.4157 5.44392L14.3438 5.93872L14.4157 5.44392ZM11.7536 9.46419L11.2608 9.54871L11.7536 9.46419ZM11.8974 9.02162L11.5484 8.66358L11.8974 9.02162ZM11.6881 13.8388L11.4554 14.2814L11.6881 13.8388ZM12.4135 13.3117L12.9063 13.2272L12.4135 13.3117ZM8.23274 12.0223L8.46541 11.5797L8.23274 12.0223ZM7.7674 12.0223L8.00007 12.4648L7.7674 12.0223ZM8.00007 12.4648L11.4554 14.2814L11.9207 13.3963L8.46541 11.5797L8.00007 12.4648ZM12.9063 13.2272L12.2464 9.37966L11.2608 9.54871L11.9207 13.3963L12.9063 13.2272ZM12.2464 9.37966L15.0418 6.65481L14.3438 5.93872L11.5484 8.66358L12.2464 9.37966ZM14.4876 4.94912L10.6245 4.38777L10.4807 5.37737L14.3438 5.93872L14.4876 4.94912ZM10.6245 4.38777L8.89681 0.887146L8.00007 1.32971L9.72773 4.83033L10.6245 4.38777ZM7.10333 0.887147L5.37567 4.38777L6.27241 4.83033L8.00007 1.32971L7.10333 0.887147ZM5.37567 4.38777L1.51251 4.94912L1.65631 5.93872L5.51947 5.37737L5.37567 4.38777ZM0.958297 6.65481L3.75371 9.37966L4.45172 8.66358L1.65631 5.93872L0.958297 6.65481ZM3.75371 9.37966L3.0938 13.2272L4.07941 13.3963L4.73932 9.54871L3.75371 9.37966ZM4.54475 14.2814L8.00007 12.4648L7.53473 11.5797L4.07941 13.3963L4.54475 14.2814ZM3.0938 13.2272C2.95369 14.0441 3.81113 14.6671 4.54475 14.2814L4.07941 13.3963V13.3963L3.0938 13.2272ZM3.75371 9.37966L3.75371 9.37966L4.73932 9.54871C4.79495 9.22432 4.68741 8.89332 4.45172 8.66358L3.75371 9.37966ZM1.51251 4.94912C0.692286 5.0683 0.364782 6.07628 0.958297 6.65481L1.65631 5.93872H1.65631L1.51251 4.94912ZM5.37567 4.38777V4.38777L5.51947 5.37737C5.84518 5.33005 6.12675 5.12548 6.27241 4.83033L5.37567 4.38777ZM8.89681 0.887146C8.52999 0.143898 7.47015 0.143903 7.10333 0.887147L8.00007 1.32971L8.00007 1.32971L8.89681 0.887146ZM10.6245 4.38777L9.72773 4.83033C9.87339 5.12548 10.155 5.33005 10.4807 5.37737L10.6245 4.38777ZM15.0418 6.65481C15.6354 6.07627 15.3078 5.0683 14.4876 4.94912L14.3438 5.93872L14.3438 5.93872L15.0418 6.65481ZM12.2464 9.37966V9.37966L11.5484 8.66358C11.3127 8.89331 11.2052 9.22431 11.2608 9.54871L12.2464 9.37966ZM11.4554 14.2814C12.189 14.6671 13.0464 14.0441 12.9063 13.2272L11.9207 13.3963L11.9207 13.3963L11.4554 14.2814ZM8.46541 11.5797C8.17409 11.4265 7.82605 11.4265 7.53473 11.5797L8.00007 12.4648L8.46541 11.5797Z" fill="#DAD873"/>
</svg>
