<svg width="16" height="15" viewBox="0 0 16 15" fill="none" xmlns="http://www.w3.org/2000/svg">
<path d="M1.23907 6.1247L1.23908 6.12469L1.23691 6.12287C0.990273 5.91619 1.09125 5.48725 1.4648 5.44683L5.64239 5.13573L5.9515 5.11272L6.06836 4.82562L7.64243 0.958686C7.78786 0.631417 8.2361 0.662767 8.35331 0.952006L8.3536 0.952725L9.9301 4.82562L10.047 5.11272L10.3561 5.13573L14.5408 5.44734L14.5414 5.44739C14.8876 5.47275 15.0248 5.90268 14.7627 6.1226L14.7607 6.12426L11.5688 8.83006L11.3331 9.02986L11.4064 9.33002L12.3983 13.3939C12.4721 13.723 12.1044 13.9802 11.8242 13.8073L8.26258 11.6081L7.99987 11.4459L7.73717 11.6081L4.17522 13.8078L4.17521 13.8078L4.17188 13.8099C3.87355 13.9974 3.51671 13.7246 3.59909 13.4039L3.59912 13.4039L3.60056 13.398L4.59318 9.33021L4.66642 9.03006L4.43074 8.83028L1.23907 6.1247Z" stroke="#DAD873"/>
<path d="M4.10743 9.21166L0.915759 6.50608C0.312101 6.00021 0.623709 5.02715 1.42075 4.9487L5.60526 4.63709L7.18175 0.764191C7.3365 0.406561 7.66881 0.226538 7.99989 0.224121V12.0335L4.43794 14.2332C3.75715 14.6611 2.91989 14.0383 3.11481 13.2795L4.10743 9.21166Z" fill="#DAD873"/>
</svg>
