<svg width="48" height="31" viewBox="0 0 48 31" fill="none" xmlns="http://www.w3.org/2000/svg">
<path d="M0 3C0 1.34315 1.34315 0 3 0H45C46.6569 0 48 1.34315 48 3V28C48 29.6569 46.6569 31 45 31H3C1.34315 31 0 29.6569 0 28V3Z" fill="white"/>
<path d="M36.109 23.4051C36.385 23.3252 36.613 23.1654 36.829 22.9872C37.7351 22.2436 38.4131 21.3035 38.9891 20.2772C41.0652 16.5779 42.2893 12.43 42.5293 8.15311C42.5533 7.71681 42.5593 7.28051 42.5713 6.85036C42.5713 6.78277 42.5593 6.71517 42.6133 6.64758C42.7813 6.69674 42.9253 6.78277 43.0634 6.89952C44.6714 8.36204 44.9475 11.1334 44.7674 13.1797C44.3534 18.0282 41.7373 23.2084 37.537 25.7156C37.441 25.7709 37.345 25.8323 37.243 25.8815C36.595 26.2379 35.923 26.5144 35.2269 26.7541C35.0949 26.7971 34.9629 26.8463 34.8369 26.8893C35.4069 26.8586 36.199 26.7541 37.093 26.453C39.4872 25.648 41.3953 23.8291 42.7213 21.6722C43.0454 21.1437 43.3394 20.5968 43.6274 20.0437C43.6454 20.013 43.6634 19.9761 43.7054 19.9638C43.7594 19.9638 43.7774 20.0069 43.7954 20.0499C44.4614 21.623 44.2874 23.2391 43.3514 24.6586C41.5033 27.4608 37.603 29.1261 34.3749 29.1445C31.3987 29.1568 28.4285 29.1506 25.4524 29.1506C25.3564 29.1506 25.2183 29.1998 25.1883 29.0646C25.1583 28.9233 25.3144 28.9356 25.3984 28.8987C29.9106 26.7725 33.3248 23.0671 35.5509 18.5443C37.483 14.6115 38.4551 10.1625 38.0771 5.75655C37.9571 4.34319 37.6991 2.94827 37.309 1.59022C37.285 1.51034 37.255 1.43045 37.237 1.34442C37.183 1.04946 37.267 0.975721 37.561 1.00645C38.2931 1.08019 38.9351 1.35671 39.5112 1.81759C40.5972 2.69633 41.0172 4.28174 41.2633 5.61521C41.7313 8.11624 41.2513 10.8815 40.6812 13.3272C39.9372 16.5103 38.6831 19.6197 36.877 22.3297C36.685 22.6185 36.463 22.8827 36.253 23.1654C36.211 23.2453 36.163 23.3252 36.109 23.4051Z" fill="url(#paint0_linear)"/>
<path d="M10.3973 12.9032C10.3913 12.51 10.2713 12.1167 9.93527 11.8955C9.60525 11.6804 9.16723 11.6865 8.90921 12.0122C8.89121 12.0368 8.84321 12.086 8.85521 12.1228C8.86721 12.1597 8.95121 12.1535 8.98121 12.172C9.04122 12.2027 9.06522 12.2642 9.05922 12.3256C9.05922 12.3994 9.05922 13.1183 9.05322 14.1015C8.20717 14.0954 7.35513 14.0892 6.50908 14.0831C6.49108 13.868 6.48508 13.6284 6.50308 13.3641C6.51508 13.1245 6.54508 12.8787 6.59308 12.639C6.61108 12.5345 6.63509 12.4301 6.66509 12.3256C6.69509 12.215 6.77309 12.0737 6.76709 11.9569C6.76709 11.9385 6.76109 11.9262 6.75509 11.9139C6.73109 11.8832 6.68909 11.8893 6.65309 11.9016C6.43707 11.9569 6.22706 12.0737 6.05905 12.2273C6.01105 12.2764 5.87304 12.4055 5.74704 12.6329C5.42302 13.2289 5.39302 14.0769 5.39302 14.0769C5.37502 14.6238 5.35702 15.7361 5.92705 16.8914C5.92705 16.8914 6.32907 17.7025 6.8991 17.8991C7.01311 17.936 7.04311 17.9114 7.05511 17.8991C7.09711 17.8377 7.00111 17.7394 6.97711 17.6964C6.9231 17.6165 6.8811 17.5243 6.8451 17.4383C6.76709 17.2539 6.71309 17.0573 6.67709 16.8545C6.55708 16.2523 6.47908 15.6378 6.49708 15.0233H9.06522C9.06522 15.7975 9.06522 16.5718 9.06522 17.3461C9.06522 17.4997 9.12522 17.6472 9.26323 17.7209C9.34723 17.764 9.44324 17.7824 9.53325 17.7947C9.69525 17.8131 9.86326 17.8254 10.0253 17.7947C10.1213 17.7762 10.2113 17.7394 10.2833 17.6718C10.3973 17.5612 10.3973 17.4198 10.3973 17.2724C10.3973 16.1048 10.4093 14.9434 10.4093 13.7758C10.4033 13.4809 10.4033 13.1921 10.3973 12.9032Z" fill="url(#paint1_linear)"/>
<path d="M6.88125 18.1941C5.84319 17.8807 5.44117 16.7623 5.21916 15.7852C5.17116 15.5702 5.12315 15.3612 5.09915 15.1461C5.01515 14.4886 5.02115 13.7697 5.22516 13.1367C5.06915 13.1736 4.99715 13.3149 4.90114 13.4255C4.56512 13.8373 4.53512 14.3227 4.52312 14.802C4.48712 15.9266 4.88314 16.7254 4.97315 16.8975C5.17716 17.2846 5.39317 17.5366 5.45917 17.6103C5.68718 17.8745 5.9212 18.0527 6.10121 18.1756C5.9632 18.1388 5.75919 18.0712 5.54918 17.936C5.35117 17.8131 5.21316 17.6718 5.11715 17.5673C4.98515 17.3952 4.88914 17.2355 4.82914 17.131C4.66713 16.836 4.45712 16.4735 4.35511 15.988C4.32511 15.8528 4.30711 15.7115 4.25311 15.7053C4.1751 15.6992 4.0911 15.9757 4.0731 16.0372C4.01309 16.2338 3.99509 16.412 4.00109 16.5042C4.00709 16.8729 4.27711 17.5919 4.91914 18.0773C4.91914 18.0773 5.48317 18.5013 6.44923 18.5382C6.49123 18.5382 6.72524 18.5321 6.89325 18.4092C6.97125 18.3354 7.03126 18.2432 6.88125 18.1941Z" fill="url(#paint2_linear)"/>
<path d="M5.2251 13.1306V13.1367L5.23709 13.1183L5.2251 13.1306Z" fill="url(#paint3_linear)"/>
<path d="M23.6582 12.768C23.6642 12.6328 23.6582 12.4301 23.6102 12.1904C23.6042 12.1658 23.5982 12.1044 23.5682 12.0306C23.5502 11.9938 23.5082 11.8893 23.4002 11.8217C23.3402 11.7848 23.2802 11.7603 23.2142 11.7603C23.1662 11.7603 23.1182 11.7664 23.0762 11.7664C23.0102 11.7664 22.9442 11.7664 22.8842 11.7664C22.7582 11.7664 22.6322 11.7664 22.5062 11.7664C22.3922 11.7725 22.2902 11.8094 22.2062 11.8954C22.1101 11.9999 22.0321 12.1412 21.9061 12.4608C21.8821 12.5099 21.8701 12.5591 21.8581 12.5837C21.8101 12.6882 21.1321 14.1937 20.8741 14.63C20.8561 14.6607 20.8141 14.7344 20.7601 14.7283C20.7061 14.7283 20.6641 14.6607 20.6461 14.63C20.3881 14.1937 19.71 12.6882 19.662 12.5837C19.65 12.553 19.632 12.5099 19.614 12.4608C19.488 12.1474 19.41 11.9999 19.314 11.8954C19.236 11.8094 19.128 11.7725 19.014 11.7664C18.888 11.7603 18.762 11.7664 18.636 11.7664C18.57 11.7664 18.504 11.7664 18.444 11.7664C18.3959 11.7664 18.3479 11.7664 18.3059 11.7603C18.2399 11.7603 18.1739 11.7848 18.1199 11.8217C18.0119 11.8893 17.9699 11.9938 17.9519 12.0306C17.9219 12.1044 17.9159 12.1658 17.9099 12.1904C17.8619 12.4301 17.8559 12.6328 17.8619 12.768C17.8139 14.3166 17.7659 15.8651 17.7119 17.4075C17.7119 17.4321 17.7179 17.469 17.7299 17.5058C17.8079 17.7332 18.0899 17.8438 18.3059 17.8438C18.522 17.8438 18.786 17.7393 18.876 17.5366C18.876 17.5366 18.894 17.4935 18.906 17.4505C18.972 17.1371 19.008 14.5992 19.02 13.4931C19.614 14.7344 20.076 15.6623 20.2861 16.0741C20.3281 16.1601 20.4241 16.326 20.5921 16.3874C20.6401 16.4059 20.6941 16.412 20.7541 16.412C20.8081 16.412 20.8621 16.3997 20.9161 16.3874C21.0841 16.3321 21.1801 16.1601 21.2221 16.0741C21.4381 15.6623 21.9001 14.7344 22.4882 13.4931C22.5002 14.5992 22.5362 17.1371 22.6022 17.4505C22.6142 17.4935 22.6262 17.5366 22.6322 17.5366C22.7222 17.7393 22.9862 17.85 23.2022 17.8438C23.4182 17.8438 23.7002 17.7271 23.7782 17.5058C23.7902 17.469 23.7962 17.4321 23.7962 17.4075C23.7602 15.8651 23.7062 14.3166 23.6582 12.768Z" fill="url(#paint4_linear)"/>
<path d="M16.5418 11.9507C16.4218 11.7909 16.2058 11.7848 16.0078 11.7786C15.8157 11.7725 15.5757 11.7664 15.4197 11.9384C15.3357 12.0367 15.3117 12.1474 15.3057 12.2149C15.2997 13.3579 15.2997 14.5009 15.2937 15.6439C15.2937 15.7545 15.2877 15.9634 15.1737 16.1969C15.0597 16.4427 14.8917 16.5779 14.8497 16.6148C14.8497 16.6148 14.5677 16.8421 14.2017 16.8729C14.1657 16.8729 14.1236 16.879 14.1236 16.879C14.1116 16.879 14.1056 16.879 14.0936 16.879C14.0816 16.879 14.0756 16.879 14.0636 16.879C14.0636 16.879 14.0276 16.879 13.9856 16.8729C13.6196 16.8421 13.3376 16.6148 13.3376 16.6148C13.2956 16.5779 13.1276 16.4427 13.0136 16.1969C12.9056 15.9634 12.8936 15.7545 12.8936 15.6439C12.8876 14.5009 12.8876 13.3579 12.8816 12.2149C12.8756 12.1474 12.8516 12.0306 12.7676 11.9384C12.6176 11.7664 12.3716 11.7725 12.1795 11.7786C11.9755 11.7848 11.7655 11.7909 11.6455 11.9507C11.5495 12.0736 11.5555 12.2272 11.5615 12.2948C11.5615 13.4931 11.5615 14.6852 11.5615 15.8835C11.5615 16.2153 11.6575 16.6578 11.9695 17.0818C12.3175 17.555 12.8216 17.7639 12.9716 17.8192C13.2836 17.9359 13.5896 17.9728 13.6856 17.979C13.8476 17.9974 13.9856 17.9974 14.0876 17.9913C14.1897 17.9974 14.3277 17.9913 14.4897 17.979C14.5857 17.9667 14.8917 17.9359 15.2037 17.8192C15.3597 17.7577 15.8577 17.5488 16.2058 17.0818C16.5178 16.6639 16.6138 16.2215 16.6138 15.8835C16.6138 14.6852 16.6138 13.4931 16.6138 12.2948C16.6318 12.2272 16.6378 12.0736 16.5418 11.9507Z" fill="url(#paint5_linear)"/>
<path d="M30.4389 13.6713C30.2708 13.0937 29.9228 12.5898 29.4548 12.2272C28.9208 11.8155 28.2607 11.6004 27.6007 11.5881C26.9347 11.6066 26.2806 11.8216 25.7466 12.2272C25.2786 12.5898 24.9306 13.0937 24.7626 13.6713C24.2825 15.3243 25.0086 17.432 26.7427 17.8991C27.0247 17.9728 27.3127 18.0035 27.6007 17.9974C27.8887 18.0035 28.1767 17.9728 28.4588 17.8991C30.1928 17.4382 30.9189 15.3243 30.4389 13.6713ZM29.1428 15.5209C28.9628 16.3014 28.4528 17.1432 27.5947 17.1555C26.7367 17.1494 26.2266 16.3075 26.0466 15.5209C25.8726 14.7651 25.9026 13.8802 26.3166 13.2043C26.6047 12.7373 27.0907 12.4607 27.5947 12.4607C28.1047 12.4669 28.5908 12.7434 28.8728 13.2043C29.2868 13.8802 29.3228 14.7651 29.1428 15.5209Z" fill="url(#paint6_linear)"/>
<defs>
<linearGradient id="paint0_linear" x1="23.0227" y1="19.3748" x2="45.4471" y2="12.653" gradientUnits="userSpaceOnUse">
<stop offset="0.329" stop-color="#9C8837"/>
<stop offset="0.5606" stop-color="#F7E59E"/>
<stop offset="0.6012" stop-color="#EFDD95"/>
<stop offset="0.6639" stop-color="#DDCA81"/>
<stop offset="0.7405" stop-color="#C4B062"/>
<stop offset="0.7875" stop-color="#B39F4D"/>
</linearGradient>
<linearGradient id="paint1_linear" x1="9.16817" y1="15.5124" x2="4.98425" y2="12.4207" gradientUnits="userSpaceOnUse">
<stop offset="0.329" stop-color="#9C8837"/>
<stop offset="0.5606" stop-color="#F7E59E"/>
<stop offset="0.6012" stop-color="#EFDD95"/>
<stop offset="0.6639" stop-color="#DDCA81"/>
<stop offset="0.7405" stop-color="#C4B062"/>
<stop offset="0.7875" stop-color="#B39F4D"/>
</linearGradient>
<linearGradient id="paint2_linear" x1="7.63196" y1="17.5915" x2="3.44804" y2="14.4999" gradientUnits="userSpaceOnUse">
<stop offset="0.329" stop-color="#9C8837"/>
<stop offset="0.5606" stop-color="#F7E59E"/>
<stop offset="0.6012" stop-color="#EFDD95"/>
<stop offset="0.6639" stop-color="#DDCA81"/>
<stop offset="0.7405" stop-color="#C4B062"/>
<stop offset="0.7875" stop-color="#B39F4D"/>
</linearGradient>
<linearGradient id="paint3_linear" x1="8.85365" y1="15.9349" x2="4.67062" y2="12.8458" gradientUnits="userSpaceOnUse">
<stop offset="0.329" stop-color="#9C8837"/>
<stop offset="0.5606" stop-color="#F7E59E"/>
<stop offset="0.6012" stop-color="#EFDD95"/>
<stop offset="0.6639" stop-color="#DDCA81"/>
<stop offset="0.7405" stop-color="#C4B062"/>
<stop offset="0.7875" stop-color="#B39F4D"/>
</linearGradient>
<linearGradient id="paint4_linear" x1="24.4056" y1="16.8127" x2="17.9478" y2="13.4679" gradientUnits="userSpaceOnUse">
<stop offset="0.329" stop-color="#9C8837"/>
<stop offset="0.5606" stop-color="#F7E59E"/>
<stop offset="0.6012" stop-color="#EFDD95"/>
<stop offset="0.6639" stop-color="#DDCA81"/>
<stop offset="0.7405" stop-color="#C4B062"/>
<stop offset="0.7875" stop-color="#B39F4D"/>
</linearGradient>
<linearGradient id="paint5_linear" x1="17.2442" y1="16.491" x2="10.7675" y2="12.5315" gradientUnits="userSpaceOnUse">
<stop offset="0.329" stop-color="#9C8837"/>
<stop offset="0.5606" stop-color="#F7E59E"/>
<stop offset="0.6012" stop-color="#EFDD95"/>
<stop offset="0.6639" stop-color="#DDCA81"/>
<stop offset="0.7405" stop-color="#C4B062"/>
<stop offset="0.7875" stop-color="#B39F4D"/>
</linearGradient>
<linearGradient id="paint6_linear" x1="32.1051" y1="17.493" x2="24.0627" y2="12.9349" gradientUnits="userSpaceOnUse">
<stop offset="0.329" stop-color="#9C8837"/>
<stop offset="0.5606" stop-color="#F7E59E"/>
<stop offset="0.6012" stop-color="#EFDD95"/>
<stop offset="0.6639" stop-color="#DDCA81"/>
<stop offset="0.7405" stop-color="#C4B062"/>
<stop offset="0.7875" stop-color="#B39F4D"/>
</linearGradient>
</defs>
</svg>
