<svg width="50" height="30" viewBox="0 0 50 30" fill="none" xmlns="http://www.w3.org/2000/svg">
<path d="M0 3C0 1.34315 1.34315 0 3 0H47C48.6569 0 50 1.34315 50 3V27C50 28.6569 48.6569 30 47 30H3C1.34315 30 0 28.6569 0 27V3Z" fill="white"/>
<path fill-rule="evenodd" clip-rule="evenodd" d="M45.7638 13.9709C46.0613 14.3879 46.0913 15.0452 45.7755 15.5546C45.4936 16.0095 43.8062 17.7553 43.2571 18.3163C42.7811 18.8035 42.1386 19.2915 41.5063 19.2915H28.2664C26.4771 19.2915 26.3691 18.6972 26.3691 17.3536V11.9032C26.3691 10.5309 26.7826 10.1343 28.0045 10.1343H41.5063C42.1386 10.1343 42.7014 10.4505 43.3477 11.0943C43.8964 11.6406 45.5356 13.6501 45.7638 13.9709Z" fill="#33CCCC"/>
<path fill-rule="evenodd" clip-rule="evenodd" d="M45.7638 13.9709C46.0613 14.3879 46.0913 15.0452 45.7755 15.5546C45.4936 16.0095 43.8062 17.7553 43.2571 18.3163C42.7811 18.8035 42.1386 19.2915 41.5063 19.2915H28.2664C26.4771 19.2915 26.3691 18.6972 26.3691 17.3536V11.9032C26.3691 10.5309 26.7826 10.1343 28.0045 10.1343H41.5063C42.1386 10.1343 42.7014 10.4505 43.3477 11.0943C43.8964 11.6406 45.5356 13.6501 45.7638 13.9709Z" fill="url(#paint0_linear)"/>
<path fill-rule="evenodd" clip-rule="evenodd" d="M29.3706 12.2417V12.2058C29.3706 12.0306 29.3556 11.8574 29.0625 11.8574H27.956C27.6988 11.8574 27.6826 11.9967 27.6826 12.2132V13.6536C28.2212 12.8991 28.8184 12.5485 29.3706 12.2417ZM36.7934 17.4465V17.3692H36.7942V13.9023C36.7942 12.4485 36.1417 11.7216 34.8369 11.7218C34.4753 11.7184 34.1198 11.8136 33.8102 11.9967C33.4996 12.1801 33.2012 12.4363 32.9149 12.7652C32.7742 12.4077 32.5621 12.1445 32.2784 11.9754C31.9947 11.8063 31.6271 11.7218 31.1757 11.7218C30.6532 11.7218 30.0457 11.9011 29.6151 12.248C29.5188 12.3426 27.6823 13.7585 27.6823 15.2128V17.4323C27.6823 17.5029 27.6476 17.7707 27.9539 17.7707H29.1058C29.4639 17.7707 29.429 17.541 29.429 17.4465V13.8567C29.6234 13.6041 30.0207 12.9801 30.666 12.9801C30.9136 12.9801 31.092 13.0622 31.201 13.2264C31.3101 13.3907 31.3648 13.666 31.3653 14.0525V16.8563H31.364V17.4324C31.364 17.503 31.3292 17.7708 31.6354 17.7708H32.7726C33.131 17.7708 33.096 17.5411 33.096 17.4466V17.3693H33.0973V13.8569C33.3057 13.6042 33.7208 12.9803 34.334 12.9803C34.5863 12.9803 34.7683 13.0624 34.8799 13.2266C34.9915 13.3908 35.0473 13.6662 35.0471 14.0526V16.8564H35.046V17.4325C35.046 17.5031 35.0114 17.7709 35.3178 17.7709H36.4701C36.8284 17.7708 36.7934 17.541 36.7934 17.4465ZM43.1373 16.037C42.7278 17.1164 41.7467 17.7197 40.531 17.7197C38.7701 17.7197 37.607 16.5442 37.607 14.7813C37.607 13.0396 38.8145 11.7772 40.4762 11.7772C42.12 11.7772 43.2225 12.8986 43.2925 14.7051C43.3015 14.9359 43.2326 15.1399 42.9382 15.1399H39.2018C39.224 16.1085 39.7007 16.6311 40.5423 16.6311C41.0556 16.6311 41.3597 16.4143 41.6246 15.9894C41.7397 15.8045 41.9757 15.8148 41.9757 15.8148H42.9382C43.0953 15.8147 43.165 15.9651 43.1373 16.0369V16.037ZM40.4762 12.898C39.7777 12.898 39.2905 13.3768 39.2018 14.1608H41.7055C41.639 13.475 41.2621 12.898 40.4762 12.898Z" fill="white"/>
<path fill-rule="evenodd" clip-rule="evenodd" d="M10.8772 10.1841C10.7292 9.95302 10.5372 9.75203 10.3117 9.59206C10.0862 9.43685 9.83851 9.31515 9.57667 9.23092C9.28586 9.13813 8.98548 9.077 8.68102 9.04863C8.33269 9.01508 7.98288 8.99887 7.63291 9.00006H4.56574C4.28994 9.00006 4.00084 9.17751 4.00084 9.51214V14.3842C4.38938 15.1962 5.14624 16.0582 6.00673 16.4702V15.504C6.00673 14.9941 6.39869 14.8802 6.56082 14.8802H7.46771C8.71691 14.8802 9.67035 14.6232 10.328 14.1093C10.9857 13.596 11.3145 12.8337 11.3145 11.8223C11.3164 11.53 11.2818 11.2386 11.2115 10.9546C11.1416 10.6823 11.0288 10.4223 10.8772 10.1841ZM9.08986 12.6862C8.98396 12.8662 8.82599 13.0115 8.63594 13.1038C8.42995 13.2001 8.20743 13.2578 7.97981 13.2741C7.73192 13.2957 7.47594 13.3066 7.21186 13.3066H6.35004C6.13923 13.3066 6.00673 13.1385 6.00673 12.8905V10.8986C6.00673 10.6752 6.15541 10.5815 6.33367 10.5815H7.21186C7.49793 10.5815 7.76619 10.5896 8.01668 10.6058C8.24212 10.6158 8.46351 10.6682 8.66884 10.76C8.85186 10.8454 9.00333 10.9842 9.10238 11.1575C9.20676 11.3356 9.25894 11.5871 9.25902 11.9118C9.25902 12.2414 9.20263 12.4996 9.08986 12.6862ZM6.00673 16.7851C5.06033 16.4146 4.42586 15.9727 4.00084 15.5346V17.8866C4.00084 17.8866 3.96584 18.2702 4.34695 18.2702H5.68508C6.05216 18.2702 6.00689 17.8866 6.00689 17.8866V16.7851H6.00673ZM24.9706 11.5631H23.7697C23.5256 11.5631 23.3648 11.6636 23.268 11.9265C23.1712 12.1894 21.8983 15.6623 21.8983 15.6623C21.8983 15.6623 20.6807 12.2612 20.5849 11.9978C20.489 11.7345 20.3317 11.5631 20.0482 11.5631H18.9447C18.5555 11.5631 18.5555 11.8626 18.6037 11.9814C18.6429 12.0774 20.154 16.1348 20.7296 17.6805C20.8653 18.0454 20.9189 18.1552 20.9231 18.2904C20.9273 18.4256 20.787 18.7094 20.69 18.8723C20.6455 18.9467 20.5944 19.0171 20.5372 19.0826C21.6656 18.7517 22.966 17.5509 23.6385 16.2499C24.3035 14.437 25.1805 12.042 25.2185 11.9195C25.2797 11.7211 25.2791 11.5631 24.9706 11.5631ZM19.6678 19.4276C19.5635 19.4258 19.4595 19.4185 19.3561 19.4056C19.2295 19.3891 18.9926 19.4123 18.9926 19.6155V20.5238C18.9926 20.8705 19.1618 20.8936 19.2549 20.9142C19.5352 20.9714 19.821 20.9984 20.1072 20.9949C20.4866 20.9949 20.8167 20.9272 21.0976 20.792C21.3812 20.6546 21.6339 20.4629 21.8408 20.2284C22.0689 19.9673 22.2618 19.6784 22.4144 19.369C22.5821 19.0365 22.743 18.6702 22.8972 18.2701C22.8972 18.2701 22.9634 18.0893 23.0722 17.7931C22.741 18.1207 21.1797 19.571 19.6678 19.4276ZM17.8643 12.6414C17.7991 12.4895 17.7101 12.3486 17.6005 12.2238C17.4913 12.1039 17.3662 11.9989 17.2287 11.9114C17.0802 11.8169 16.9228 11.7367 16.7585 11.6721C16.5907 11.608 16.4182 11.5565 16.2425 11.5182C16.0426 11.4754 15.8398 11.4469 15.6358 11.4331C15.4154 11.417 15.1677 11.4089 14.8926 11.4088C13.0733 11.4088 12.0374 11.972 11.7848 13.0986C11.7027 13.4482 12.0557 13.4687 12.0557 13.4687H13.1749C13.467 13.4687 13.4545 13.3765 13.5963 13.1176C13.6473 12.9768 13.7392 12.8536 13.8607 12.7631C14.0755 12.6011 14.3974 12.52 14.8265 12.52C15.2394 12.52 15.5393 12.5983 15.7263 12.7549C15.9133 12.9115 16.0234 13.1494 16.0565 13.4687C16.0565 13.8389 15.9387 14.0858 15.4819 14.0858C14.3682 14.0462 13.1715 14.1696 12.4975 14.5482C11.8234 14.9267 11.4424 15.6668 11.4424 16.4616C11.4424 16.7858 11.5016 17.0696 11.6199 17.3132C11.7346 17.5519 11.9042 17.7615 12.1153 17.9254C12.3393 18.0965 12.5961 18.222 12.8705 18.2944C13.1823 18.3782 13.5045 18.4192 13.8279 18.4163C14.3122 18.4163 14.7402 18.3568 15.1117 18.2378C15.4831 18.119 16.0579 17.7273 16.1311 17.6702V17.879C16.1311 18.0859 16.1954 18.2704 16.4474 18.2704H17.7489C18.0123 18.2704 18.0709 18.0859 18.0709 17.8588V13.9311C18.0732 13.687 18.0566 13.443 18.0214 13.2013C17.9935 13.0089 17.9407 12.8207 17.8643 12.6414ZM16.0896 16.4923C16.0896 16.4923 15.7535 17.1761 14.5541 17.1761C14.2241 17.1761 13.9559 17.1032 13.7493 16.9573C13.5428 16.8114 13.4395 16.5842 13.4397 16.276C13.4397 15.8756 13.6076 15.593 13.9434 15.4281C14.2789 15.2634 14.9506 15.1693 15.454 15.1808C15.9573 15.1924 16.0896 15.504 16.0896 15.7191V16.4924V16.4923Z" fill="#333333"/>
<defs>
<linearGradient id="paint0_linear" x1="52.4863" y1="12.7783" x2="50.0169" y2="28.0033" gradientUnits="userSpaceOnUse">
<stop offset="0.47231" stop-color="#00CCCC"/>
<stop offset="1" stop-color="#3399FF"/>
</linearGradient>
</defs>
</svg>
