<svg width="16" height="16" viewBox="0 0 16 16" fill="none" xmlns="http://www.w3.org/2000/svg">
<path d="M7.53451 14.0446C7.82584 13.8915 8.17387 13.8915 8.46519 14.0446L11.8491 15.8237C12.5827 16.2094 13.4402 15.5864 13.3001 14.7695L12.6538 11.0014C12.5982 10.677 12.7057 10.346 12.9414 10.1163L15.679 7.44776C16.2726 6.86922 15.9451 5.86125 15.1248 5.74206L11.3415 5.19231C11.0158 5.14498 10.7342 4.94041 10.5886 4.64527L8.89659 1.21698C8.52978 0.473734 7.46993 0.473734 7.10312 1.21698L5.41115 4.64527C5.26549 4.94042 4.98393 5.14498 4.65822 5.19231L0.874872 5.74206C0.0546521 5.86125 -0.272858 6.86922 0.320659 7.44776L3.05831 10.1163C3.294 10.346 3.40155 10.677 3.34591 11.0014L2.69964 14.7695C2.55953 15.5864 3.41696 16.2094 4.15059 15.8237L7.53451 14.0446Z" fill="#DAD873"/>
</svg>
